<?xml version="1.0" encoding="UTF-8"?>
<svg width="428px" height="93px" viewBox="0 0 428 93" version="1.1" xmlns="http://www.w3.org/2000/svg" xmlns:xlink="http://www.w3.org/1999/xlink">
    <title>Group 7@2x</title>
    <defs>
        <polygon id="path-1" points="0 0 15.2861795 0 15.2861795 12.4 0 12.4"></polygon>
    </defs>
    <g id="Page-1" stroke="none" stroke-width="1" fill="none" fill-rule="evenodd">
        <g id="Group-7" transform="translate(0.000000, 0.500000)">
            <g id="Group-5">
                <g id="Group-4">
                    <g id="Group">
                        <circle id="Oval" fill="#6D00DB" cx="45.528125" cy="45.528125" r="45.528125"></circle>
                        <path d="M24.628125,25.728125 L66.428125,25.728125 C74.7676247,25.728125 81.528125,32.4886253 81.528125,40.828125 C81.528125,49.1676247 74.7676247,55.928125 66.428125,55.928125 L24.628125,55.928125 C16.2886253,55.928125 9.528125,49.1676247 9.528125,40.828125 C9.528125,32.4886253 16.2886253,25.728125 24.628125,25.728125 Z" id="Rectangle" fill="#FFFFFF"></path>
                        <path d="M30.7226562,45.6 L60.3335938,45.6 L60.3335938,60.4054688 C60.3335938,68.5823034 53.7049596,75.2109375 45.528125,75.2109375 C37.3512904,75.2109375 30.7226562,68.5823034 30.7226562,60.4054688 L30.7226562,45.6 Z" id="Rectangle" fill="#FFFFFF"></path>
                        <path d="M55.6343549,59.8555159 L55.6410001,59.987116 C55.6410001,65.5723076 51.1133077,70.1 45.5281161,70.1 C39.9429245,70.1 35.4151936,65.5723076 35.4151936,59.987116 C35.4151936,59.2762615 35.9914551,58.7 36.7023096,58.7 L54.3538841,58.7 C55.0203102,58.7 55.5684417,59.2064798 55.6343549,59.8555159 L55.6343549,59.8555159 Z" id="Path" fill="#6D00DB"></path>
                    </g>
                    <g id="Group-2-Copy" transform="translate(21.000000, 35.800000)" fill="#6D00DB">
                        <path d="M10,5 C10,7.76142375 7.76142375,10 5,10 C2.23857625,10 0,7.76142375 0,5 C0,2.3112453 2.12230671,0.118181885 4.78311038,0.00461951385 L5,0 L5,5 L10,5 Z" id="Path"></path>
                        <path d="M49.2,5 C49.2,7.76142375 46.9614237,10 44.2,10 C41.4385763,10 39.2,7.76142375 39.2,5 C39.2,2.3112453 41.3223067,0.118181885 43.9831104,0.00461951385 L44.13,0.001 L44.1304688,5 L49.2,5 Z" id="Path"></path>
                    </g>
                    <g id="Group-2" transform="translate(39.628125, 46.500000)" fill="#6D00DB">
                        <circle id="Oval-Copy-2" cx="2.1" cy="2.1" r="2.1"></circle>
                        <circle id="Oval-Copy-3" cx="9.7" cy="2.1" r="2.1"></circle>
                    </g>
                    <g id="Group-3" transform="translate(51.428125, 13.600000)">
                        <mask id="mask-2" fill="white">
                            <use xlink:href="#path-1"></use>
                        </mask>
                        <g id="Clip-2"></g>
                        <path d="M0,12.4 C0,12.4 12.7179487,11.6051282 12.7179487,0 C12.7179487,0 15.5794872,6.2 15.2615385,12.4 L0,12.4 Z" id="Fill-1" fill="#FFFFFF" mask="url(#mask-2)"></path>
                    </g>
                </g>
                <text id="OPEN-APE" font-family="MarkPro-Heavy, Mark Pro" font-size="60" font-weight="600" fill="#6D00DB">
                    <tspan x="117" y="69">OPEN APE</tspan>
                </text>
            </g>
        </g>
    </g>
</svg>